PathFileType	4	(X/Y/Z)	7_coords_data.trc
DataRate	CameraRate	NumFrames	NumMarkers	Units	OrigDataRate	OrigDataStartFrame	OrigNumFrames
30.0	30.0	8	21	m	30.0	19	56
Frame#	Time	THUMB_TIP	THUMB_IP	THUMB_MCP	THUMB_CMC	INDEX_TIP	INDEX_DIP	INDEX_PIP	INDEX_MCP	MIDDLE_TIP	MIDDLE_DIP	MIDDLE_PIP	MIDDLE_MCP	RING_TIP	RING_DIP	RING_PIP	RING_MCP	PINKY_TIP	PINKY_DIP	PINKY_PIP	PINKY_MCP	WRIST
X1	Y1	Z1	X2	Y2	Z2	X3	Y3	Z3	X4	Y4	Z4	X5	Y5	Z5	X6	Y6	Z6	X7	Y7	Z7	X8	Y8	Z8	X9	Y9	Z9	X10	Y10	Z10	X11	Y11	Z11	X12	Y12	Z12	X13	Y13	Z13	X14	Y14	Z14	X15	Y15	Z15	X16	Y16	Z16	X17	Y17	Z17	X18	Y18	Z18	X19	Y19	Z19	X20	Y20	Z20	X21	Y21	Z21
18	0.6	-0.05208969879150391	-0.08371389770507813	0.9997210083007813	-0.054614398956298826	-0.06361489868164062	1.0165900268554688	-0.0655634994506836	-0.04653340148925781	1.0376099853515626	-0.06554530334472657	-0.01634000015258789	1.0546500244140624	-0.030172100067138673	-0.029313100814819335	0.9213330078125	-0.04312710189819336	-0.02653310012817383	0.9395269775390624	-0.05412070083618164	-0.023851699829101562	0.9598460083007813	-0.06170090103149414	-0.019734699249267577	0.995864990234375	-0.03025749969482422	0.015140000343322755	0.9063170166015625	-0.03861449813842773	0.01186359977722168	0.9296749877929688	-0.04853870010375977	0.008091030120849609	0.9556400146484375	-0.056612598419189454	0.002744970083236694	0.9925819702148437	-0.018397600173950195	0.03178160095214844	0.9250830078125	-0.02836050033569336	0.029901599884033202	0.9463729858398438	-0.038748001098632814	0.02739900016784668	0.9691690063476562	-0.0473474006652832	0.020390600204467774	1.0001199951171875	-0.008845080375671386	0.06650060272216797	0.9692550048828125	-0.018076799392700196	0.057054401397705075	0.9833369750976563	-0.02621739959716797	0.04834349822998047	0.9954929809570312	-0.03833649826049805	0.033699298858642576	1.0133900146484376	-0.07943099975585938	0.013683799743652345	1.067739990234375
19	0.6333333333333333	-0.05128950119018555	-0.08480629730224609	1.00002001953125	-0.053945999145507816	-0.06473529815673829	1.0168300170898437	-0.06504489898681641	-0.047646499633789065	1.037760009765625	-0.06506580352783203	-0.01740679931640625	1.0546600341796875	-0.02882349967956543	-0.03063669967651367	0.9219760131835938	-0.04199380111694336	-0.027728200912475586	0.939844970703125	-0.05320750045776367	-0.025049299240112306	0.9598989868164063	-0.06104140090942383	-0.020871000289916994	0.9957520141601562	-0.029031600952148438	0.013848799705505371	0.9066339721679687	-0.03758110046386719	0.010622699737548829	0.9299199829101562	-0.047692699432373045	0.00689693021774292	0.95585400390625	-0.056018299102783206	0.001626620054244995	0.9926810302734375	-0.017544300079345702	0.030610700607299805	0.9252949829101562	-0.027601499557495118	0.028729700088500978	0.9465380249023437	-0.03810749816894531	0.026210399627685548	0.9692839965820312	-0.046754600524902344	0.019269899368286134	1.0002100219726562	-0.007978569984436036	0.06522049713134766	0.9695269775390625	-0.017306100845336913	0.05579840087890625	0.9835440063476563	-0.02549489974975586	0.04716889953613281	0.9956290283203125	-0.037715301513671876	0.03256200027465821	1.01347998046875	-0.07902839660644531	0.012583800315856934	1.0676300048828125
20	0.6666666666666666	-0.05014419937133789	-0.0857771987915039	1.0004500122070312	-0.05289820098876953	-0.06570809936523438	1.0171199951171874	-0.0642042007446289	-0.048564899444580076	1.0379300537109375	-0.06434470367431641	-0.018243999481201173	1.0547099609375	-0.02770199966430664	-0.031715000152587894	0.9222360229492188	-0.04103310012817383	-0.028764400482177734	0.9400120239257812	-0.052321701049804686	-0.02601759910583496	0.9601209716796875	-0.06030860137939453	-0.021805099487304688	0.995947021484375	-0.028129499435424806	0.012780599594116211	0.906739990234375	-0.03670289993286133	0.009628959655761719	0.930031982421875	-0.04686489868164063	0.005911610126495361	0.9559400024414062	-0.05529119873046875	0.000714690029621124	0.9927329711914062	-0.016772199630737304	0.02994580078125	0.92539599609375	-0.02685169982910156	0.028026100158691405	0.9466329956054688	-0.03737870025634766	0.025415599822998045	0.9694219970703125	-0.046030101776123045	0.018359800338745118	1.0002100219726562	-0.007119269847869873	0.06435040283203125	0.9696959838867187	-0.016471200942993165	0.05495800018310547	0.9836680297851562	-0.024767499923706054	0.04629050064086914	0.9957210083007813	-0.037038101196289065	0.03169029998779297	1.013510009765625	-0.07838529968261719	0.011799099922180176	1.0676099853515626
21	0.7	-0.04941320037841797	-0.08658670043945313	1.0006799926757812	-0.05223659896850586	-0.06644589996337891	1.0172899780273437	-0.06353060150146485	-0.049201000213623045	1.038	-0.0636692008972168	-0.01884880065917969	1.054699951171875	-0.02646649932861328	-0.03278010177612305	0.92256298828125	-0.03990599822998047	-0.029748199462890625	0.9402069702148438	-0.051337501525878904	-0.026893199920654295	0.960197021484375	-0.0594197998046875	-0.022584199905395508	0.9958489990234375	-0.026412200927734376	0.011613200187683106	0.906958984375	-0.03526300048828125	0.008583609580993651	0.9301619873046875	-0.045715301513671876	0.005002900123596192	0.9560369873046874	-0.05442679977416992	-4.8229500651359e-05	0.9927130126953125	-0.01540820026397705	0.028930700302124024	0.925468017578125	-0.025655099868774414	0.027091800689697267	0.946677978515625	-0.03624670028686523	0.024572700500488282	0.9694550170898437	-0.04516170120239258	0.017603300094604493	1.00025	-0.00605705976486206	0.06354249954223633	0.96972802734375	-0.015433500289916992	0.05414960098266602	0.9837349853515625	-0.02375819969177246	0.04552270126342774	0.9957760009765625	-0.03623820114135742	0.030939899444580077	1.0135999755859375	-0.07778839874267578	0.011233699798583985	1.0675400390625
22	0.7333333333333333	-0.048587799072265625	-0.08702059936523437	1.0005700073242187	-0.051445400238037106	-0.0668292007446289	1.017239990234375	-0.06282720184326172	-0.04961669921875	1.03793994140625	-0.0629719009399414	-0.01930419921875	1.0546500244140624	-0.025196300506591798	-0.03321099853515625	0.9226690063476563	-0.03869350051879883	-0.03016080093383789	0.94014599609375	-0.05027489852905274	-0.02729990005493164	0.960031982421875	-0.05863370132446289	-0.022994699478149413	0.995927978515625	-0.02498240089416504	0.011285599708557128	0.907051025390625	-0.03405749893188476	0.008270660400390624	0.9301849975585937	-0.04471110153198242	0.004634339809417725	0.9560180053710937	-0.05362239837646485	-0.00045267501473426804	0.9925980224609375	-0.014479100227355957	0.02874530029296875	0.9255	-0.02476840019226074	0.026814899444580077	0.9467589721679688	-0.03535070037841797	0.02418829917907715	0.9694860229492187	-0.04436090087890625	0.01719230079650879	1.0002100219726562	-0.005218770027160644	0.06313290023803711	0.9698289794921875	-0.014608799934387207	0.05368780136108398	0.9837459716796875	-0.022969600677490234	0.04503609848022461	0.995780029296875	-0.035463798522949216	0.030492300033569335	1.0135900268554687	-0.07710690307617188	0.010783300399780274	1.0674000244140625
23	0.7666666666666667	-0.04763510131835937	-0.08733509826660156	1.0005800170898438	-0.05056959915161133	-0.06713610076904297	1.0171500244140625	-0.06208860015869141	-0.04993759918212891	1.03772998046875	-0.062354801177978515	-0.01953770065307617	1.0544599609375	-0.024167699813842772	-0.03355279922485352	0.9226859741210938	-0.03781060028076172	-0.0304901008605957	0.9400560302734375	-0.04948440170288086	-0.027598100662231444	0.9598909912109375	-0.05798089981079101	-0.02333449935913086	0.9959010009765625	-0.02394420051574707	0.010862500190734863	0.9069710083007813	-0.03310070037841797	0.007904139995574952	0.9300560302734375	-0.04394179916381836	0.004337339878082275	0.9558770141601562	-0.053107398986816406	-0.000727317988872528	0.9926069946289062	-0.013763099670410157	0.028467899322509767	0.9253159790039063	-0.02403700065612793	0.02653790092468262	0.9465869750976562	-0.03460480117797852	0.023923599243164062	0.9692969970703125	-0.04365219879150391	0.016912799835205078	1.0	-0.004407859802246093	0.06277239990234375	0.9696229858398437	-0.013874199867248535	0.05336819839477539	0.9835549926757813	-0.022270299911499022	0.04476810073852539	0.9955560302734375	-0.03472809982299805	0.030258699417114256	1.0133699951171875	-0.0764968032836914	0.010523599624633789	1.0671700439453125
24	0.8	-0.04746680068969727	-0.08743540191650391	1.00047998046875	-0.050323001861572264	-0.0672313003540039	1.016989990234375	-0.06170159912109375	-0.04997119903564453	1.037530029296875	-0.06185710144042969	-0.019588199615478516	1.054239990234375	-0.023522300720214842	-0.033789901733398436	0.9226099853515625	-0.03720809936523437	-0.030706399917602538	0.9399169921875	-0.04896900177001953	-0.02773940086364746	0.9596829833984375	-0.057503101348876956	-0.0234424991607666	0.995677001953125	-0.023041200637817384	0.010514599800109863	0.9068510131835937	-0.032297599792480466	0.007634300231933594	0.9299039916992188	-0.04329550170898438	0.004119870185852051	0.9556630249023438	-0.05245169830322265	-0.0008761410117149351	0.9922579956054688	-0.01301509952545166	0.02815679931640625	0.9251400146484375	-0.023349800109863282	0.026295799255371094	0.9463989868164062	-0.03399140167236328	0.023738100051879884	0.9690780029296875	-0.04309320068359375	0.016816600799560547	0.9998380126953125	-0.003583889961242676	0.06238219833374024	0.9693410034179688	-0.013105999946594239	0.05308390045166016	0.9832680053710937	-0.021621599197387695	0.04456230163574219	0.9952780151367188	-0.034244598388671874	0.030193700790405273	1.0131799926757812	-0.07599839782714844	0.010538999557495116	1.0669200439453126
25	0.8333333333333334	-0.0471603012084961	-0.08719329833984375	1.000030029296875	-0.05006570053100586	-0.06704109954833984	1.0166400146484376	-0.061426101684570314	-0.049787101745605467	1.037219970703125	-0.06146829986572266	-0.019439199447631835	1.053949951171875	-0.023034400939941406	-0.03358169937133789	0.922375	-0.036766700744628907	-0.03048629951477051	0.9396890258789062	-0.048597599029541014	-0.02753969955444336	0.9593380126953125	-0.05704150009155273	-0.02322089958190918	0.9952039794921875	-0.0220935001373291	0.010682499885559082	0.9067570190429688	-0.03149679946899414	0.00782376003265381	0.9297219848632813	-0.04266469955444336	0.004321879863739013	0.9554320068359375	-0.051923099517822265	-0.000693154990673065	0.9919390258789063	-0.012100600242614746	0.028196699142456056	0.9250269775390625	-0.022549299240112303	0.026379499435424805	0.9462630004882813	-0.03331819915771484	0.023861600875854493	0.968905029296875	-0.04259970092773437	0.016981599807739257	0.999530029296875	-0.002115149974822998	0.06185229873657227	0.9693510131835937	-0.01204740047454834	0.05277000045776367	0.9831329956054687	-0.020888099670410155	0.04443420028686523	0.995072998046875	-0.033828399658203126	0.03035190010070801	1.0129099731445312	-0.075564697265625	0.010693400382995606	1.0666600341796875
